<svg xmlns="http://www.w3.org/2000/svg" preserveAspectRatio="none" width="100%" height="100%" overflow="visible" style="display: block;" viewBox="0 0 20 20" fill="none">
  <path id="Vector" d="M5.66 10.21C5.75344 10.3027 5.86426 10.376 5.9861 10.4258C6.10794 10.4755 6.2384 10.5008 6.37 10.5C6.50161 10.5008 6.63207 10.4755 6.75391 10.4258C6.87575 10.376 6.98656 10.3027 7.08 10.21L8.58 8.71C8.67373 8.61704 8.74813 8.50644 8.7989 8.38458C8.84966 8.26272 8.8758 8.13201 8.8758 8C8.8758 7.86799 8.84966 7.73728 8.7989 7.61542C8.74813 7.49356 8.67373 7.38296 8.58 7.29L7.08 5.79C6.8917 5.6017 6.63631 5.49591 6.37 5.49591C6.1037 5.49591 5.84831 5.6017 5.66 5.79C5.4717 5.9783 5.36591 6.2337 5.36591 6.5C5.36591 6.7663 5.4717 7.0217 5.66 7.21L6.46 8L5.66 8.79C5.56628 8.88296 5.49188 8.99356 5.44111 9.11542C5.39034 9.23728 5.36421 9.36799 5.36421 9.5C5.36421 9.63201 5.39034 9.76272 5.44111 9.88458C5.49188 10.0064 5.56628 10.117 5.66 10.21ZM13.16 10.21C13.2534 10.3027 13.3643 10.376 13.4861 10.4258C13.6079 10.4755 13.7384 10.5008 13.87 10.5C14.0016 10.5008 14.1321 10.4755 14.2539 10.4258C14.3757 10.376 14.4866 10.3027 14.58 10.21C14.6737 10.117 14.7481 10.0064 14.7989 9.88458C14.8497 9.76272 14.8758 9.63201 14.8758 9.5C14.8758 9.36799 14.8497 9.23728 14.7989 9.11542C14.7481 8.99356 14.6737 8.88296 14.58 8.79L13.79 8L14.58 7.21C14.6732 7.11676 14.7472 7.00607 14.7977 6.88425C14.8481 6.76243 14.8741 6.63186 14.8741 6.5C14.8741 6.36814 14.8481 6.23757 14.7977 6.11575C14.7472 5.99393 14.6732 5.88324 14.58 5.79C14.4868 5.69676 14.3761 5.6228 14.2543 5.57234C14.1324 5.52188 14.0019 5.49591 13.87 5.49591C13.7381 5.49591 13.6076 5.52188 13.4858 5.57234C13.3639 5.6228 13.2532 5.69676 13.16 5.79L11.66 7.29C11.5663 7.38296 11.4919 7.49356 11.4411 7.61542C11.3903 7.73728 11.3642 7.86799 11.3642 8C11.3642 8.13201 11.3903 8.26272 11.4411 8.38458C11.4919 8.50644 11.5663 8.61704 11.66 8.71L13.16 10.21ZM13.27 12.21C13.0969 12.0802 12.8864 12.01 12.67 12.01C12.4536 12.01 12.2431 12.0802 12.07 12.21L11.33 12.76L10.6 12.21C10.4269 12.0802 10.2164 12.01 10 12.01C9.78363 12.01 9.5731 12.0802 9.4 12.21L8.67 12.76L7.93 12.21C7.75691 12.0802 7.54637 12.01 7.33 12.01C7.11363 12.01 6.9031 12.0802 6.73 12.21L5.4 13.21C5.29495 13.2888 5.20644 13.3875 5.13953 13.5005C5.07262 13.6135 5.02863 13.7386 5.01005 13.8686C4.97255 14.1311 5.04087 14.3978 5.2 14.61C5.35913 14.8222 5.59603 14.9624 5.85858 15C6.12113 15.0375 6.38783 14.9691 6.6 14.81L7.33 14.26L8.07 14.81C8.1079 14.834 8.1481 14.8541 8.19 14.87C8.25919 14.9069 8.33326 14.9339 8.41 14.95H8.54H8.77001H8.89001C9.00805 14.9152 9.11954 14.8611 9.22001 14.79L9.95 14.24L10.68 14.79C10.8221 14.8951 10.9895 14.9606 11.1652 14.9799C11.3408 14.9992 11.5185 14.9717 11.68 14.9L11.78 14.85C11.8197 14.8361 11.8568 14.8158 11.89 14.79L12.63 14.24L13.36 14.79C13.5331 14.9198 13.7436 14.99 13.96 14.99C14.1152 14.99 14.2684 14.9539 14.4072 14.8844C14.5461 14.815 14.6669 14.7142 14.76 14.59C14.8388 14.4849 14.8961 14.3654 14.9287 14.2382C14.9613 14.111 14.9685 13.9786 14.95 13.8486C14.9314 13.7186 14.8874 13.5935 14.8205 13.4805C14.7536 13.3675 14.6651 13.2688 14.56 13.19L13.27 12.21ZM10 0C8.02219 0 6.08879 0.58649 4.4443 1.6853C2.79981 2.78412 1.51809 4.3459 0.761209 6.17317C0.00433283 8.00043 -0.193701 10.0111 0.192152 11.9509C0.578004 13.8907 1.53041 15.6725 2.92894 17.0711C4.32746 18.4696 6.10929 19.422 8.0491 19.8079C9.98891 20.1937 11.9996 19.9957 13.8268 19.2388C15.6541 18.4819 17.2159 17.2002 18.3147 15.5557C19.4135 13.9112 20 11.9778 20 10C20 8.68678 19.7413 7.38642 19.2388 6.17317C18.7363 4.95991 17.9997 3.85752 17.0711 2.92893C16.1425 2.00035 15.0401 1.26375 13.8268 0.761205C12.6136 0.258658 11.3132 0 10 0V0ZM10 18C8.41775 18 6.87104 17.5308 5.55544 16.6518C4.23985 15.7727 3.21447 14.5233 2.60897 13.0615C2.00347 11.5997 1.84504 9.99113 2.15372 8.43928C2.4624 6.88743 3.22433 5.46197 4.34315 4.34315C5.46197 3.22433 6.88743 2.4624 8.43928 2.15372C9.99113 1.84504 11.5997 2.00346 13.0615 2.60896C14.5233 3.21447 15.7727 4.23984 16.6518 5.55544C17.5308 6.87103 18 8.41775 18 10C18 12.1217 17.1572 14.1566 15.6569 15.6569C14.1566 17.1571 12.1217 18 10 18V18Z" fill="#1B1B1B"/>
</svg>
