<svg width="172" height="172" viewBox="0 0 172 172" fill="none" xmlns="http://www.w3.org/2000/svg">
  <rect width="172" height="172" rx="8" fill="#e7e5e4"/>
  <path d="M86 70C78.268 70 72 76.268 72 84C72 91.732 78.268 98 86 98C93.732 98 100 91.732 100 84C100 76.268 93.732 70 86 70Z" fill="#929292"/>
  <path d="M86 60C70.536 60 58 72.536 58 88C58 103.464 70.536 116 86 116C101.464 116 114 103.464 114 88C114 72.536 101.464 60 86 60ZM86 106C74.9543 106 66 97.0457 66 88C66 78.9543 74.9543 70 86 70C97.0457 70 106 78.9543 106 88C106 97.0457 97.0457 106 86 106Z" fill="#929292"/>
</svg>

